<?xml version="1.0" encoding="UTF-8"?>
<!DOCTYPE svg PUBLIC "-//W3C//DTD SVG 1.1//EN" "http://www.w3.org/Graphics/SVG/1.1/DTD/svg11.dtd">
<svg xmlns="http://www.w3.org/2000/svg" version="1.1" width="554px" height="284px" style="shape-rendering:geometricPrecision; text-rendering:geometricPrecision; image-rendering:optimizeQuality; fill-rule:evenodd; clip-rule:evenodd" xmlns:xlink="http://www.w3.org/1999/xlink">
<g><path style="opacity:0.991" fill="#1f201f" d="M -0.5,-0.5 C 26.1667,-0.5 52.8333,-0.5 79.5,-0.5C 79.5,93.8333 79.5,188.167 79.5,282.5C 52.8333,282.5 26.1667,282.5 -0.5,282.5C -0.5,188.167 -0.5,93.8333 -0.5,-0.5 Z"/></g>
<g><path style="opacity:0.987" fill="#1f201f" d="M 80.5,-0.5 C 107.5,-0.5 134.5,-0.5 161.5,-0.5C 180.345,92.8927 199.512,186.226 219,279.5C 237.567,186.167 256.067,92.8337 274.5,-0.5C 301.167,-0.5 327.833,-0.5 354.5,-0.5C 333.659,93.8633 312.659,188.197 291.5,282.5C 242.261,282.831 193.095,282.497 144,281.5C 122.766,187.496 101.6,93.4958 80.5,-0.5 Z"/></g>
<g><path style="opacity:0.985" fill="#1f201f" d="M 355.5,-0.5 C 382.5,-0.5 409.5,-0.5 436.5,-0.5C 436.58,93.8352 436.246,188.169 435.5,282.5C 408.833,282.5 382.167,282.5 355.5,282.5C 355.5,188.167 355.5,93.8333 355.5,-0.5 Z"/></g>
<g><path style="opacity:0.966" fill="#1f201f" d="M 553.5,203.5 C 553.5,230.167 553.5,256.833 553.5,283.5C 527.5,283.5 501.5,283.5 475.5,283.5C 474.343,257.239 474.177,230.905 475,204.5C 501.092,203.505 527.259,203.172 553.5,203.5 Z"/></g>
</svg>
